General
Format                                   : AVI
Format/Info                              : Audio Video Interleave
File size                                : 792 MiB
Duration                                 : 1h 41mn
Overall bit rate                         : 1 095 Kbps
Movie name                               : Street Trash [Uncut] DVD Rip By AndyK
Director                                 : Andy
Writing application                      : Lavf51.10.0
Original source form/Name                : STREET TRASH SE DISC 1

Video
ID                                       : 0
Format                                   : MPEG-4 Visual
Format profile                           : Simple@L3
Format settings, BVOP                    : No
Format settings, QPel                    : No
Format settings, GMC                     : No warppoints
Format settings, Matrix                  : Default (H.263)
Codec ID                                 : XVID
Codec ID/Hint                            : XviD
Duration                                 : 1h 41mn
Bit rate                                 : 892 Kbps
Width                                    : 768 pixels
Height                                   : 432 pixels
Display aspect ratio                     : 16:9
Frame rate                               : 23.976 fps
Color space                              : YUV
Chroma subsampling                       : 4:2:0
Bit depth                                : 8 bits
Scan type                                : Progressive
Compression mode                         : Lossy
Bits/(Pixel*Frame)                       : 0.112
Stream size                              : 645 MiB (81%)
Writing library                          : XviD 1.1.2 (UTC 2006-11-01)

Audio
ID                                       : 1
Format                                   : AC-3
Format/Info                              : Audio Coding 3
Mode extension                           : CM (complete main)
Format settings, Endianness              : Big
Codec ID                                 : 2000
Duration                                 : 1h 41mn
Bit rate mode                            : Constant
Bit rate                                 : 192 Kbps
Channel(s)                               : 2 channels
Channel positions                        : Front: L R
Sampling rate                            : 48.0 KHz
Bit depth                                : 16 bits
Compression mode                         : Lossy
Stream size                              : 139 MiB (18%)
Alignment                                : Aligned on interleaves
Interleave, duration                     : 32 ms (0.77 video frame)
Interleave, preload duration             : 32 ms